John is an extraordinary teen, masking his true identity and passing as a typical high school student to elude a deadly enemy seeking to destroy him. Three like him have already been killed ... he is Number Four.
 
http://www.imdb.com/title/tt1464540/

Subs: Dutch, English.

Negen buitenaardse baby's met menselijke kenmerken vluchten van hun thuis planeet Lorien om zich te verschuilen op Aarde. Ze worden gevolgd door de Mogadorians die hun eigen planeet vernietigd hebben om de baby's op te sporen. De baby's hebben allemaal een eigen lijfwacht en ze zullen superkrachten krijgen wanneer ze ouder worden. Ze hebben allemaal een nummer van één tot negen en kunnen ook alleen in die volgorde vermoord worden. Number Four (Alex Pettyfer), ook John Smith genaamd, verhuist naar Paradise, Ohio en wordt vrienden met de vriendelijke fotograaf Sarah. Na zijn hele leven op de vlucht te zijn geweest is Number Four verliefd geworden en heeft hij iets om voor te vechten...
 
http://www.moviemeter.nl/film/70479

Subs: Engels, Nederlands.

Source: I.Am.Number.Four.720p.BluRay.x264-BLOW 

General
Complete name                    : I Am Number Four-AC3-XviD-BRRip 2011.avi
Format                           : AVI
Format/Info                      : Audio Video Interleave
File size                        : 1.46 GiB
Duration                         : 1h 49mn
Overall bit rate                 : 1 909 Kbps
Writing application              : VirtualDubMod 1.5.4.1 (build 2178/release)
Writing library                  : VirtualDubMod build 2178/release

Video
ID                               : 0
Format                           : MPEG-4 Visual
Format profile                   : Simple@L3
Format settings, BVOP            : No
Format settings, QPel            : No
Format settings, GMC             : No warppoints
Format settings, Matrix          : Default (H.263)
Codec ID                         : XVID
Codec ID/Hint                    : XviD
Duration                         : 1h 49mn
Bit rate                         : 1 452 Kbps
Width                            : 720 pixels
Height                           : 400 pixels
Display aspect ratio             : 16:9
Frame rate                       : 23.976 fps
Resolution                       : 8 bits
Colorimetry                      : 4:2:0
Scan type                        : Progressive
Bits/(Pixel*Frame)               : 0.210
Stream size                      : 1.11 GiB (76%)
Writing library                  : XviD 1.1.2 (UTC 2006-11-01)

Audio
ID                               : 1
Format                           : AC-3
Format/Info                      : Audio Coding 3
Codec ID                         : 2000
Duration                         : 1h 49mn
Bit rate mode                    : Constant
Bit rate                         : 448 Kbps
Channel(s)                       : 6 channels
Channel positions                : Front: L C R, Surround: L R, LFE
Sampling rate                    : 48.0 KHz
Stream size                      : 351 MiB (23%)
Alignment                        : Split accross interleaves
Interleave, duration             : 42 ms (1.00 video frame)
Interleave, preload duration     : 500 ms

Enjoy..

TBS.